<svg id="Capa_1" enable-background="new 0 0 512 512" height="512" viewBox="0 0 512 512" width="512" xmlns="http://www.w3.org/2000/svg"><g><g><path d="m323.684 128.15h.343c2.749 24.732 19.51 45.284 42.138 53.542v5.643c-26.806 9.197-46.128 34.648-46.128 64.533v16.412c0 4.14 3.356 7.496 7.496 7.496h121.426c4.141 0 7.496-3.356 7.496-7.496v-16.412c0-29.883-19.324-55.323-46.128-64.521v-5.653c22.631-8.257 39.395-28.81 42.144-53.544h.446c13.098 0 23.754-10.656 23.754-23.755 0-5.034-1.578-9.703-4.26-13.549v-4.321c0-11.868-3.638-23.258-10.52-32.936-.301-.423-.384-1.064-.223-1.715 1.421-5.751 2.222-12.111 2.448-19.443.178-5.773-.213-11.679-1.162-17.553-.769-4.76-3.492-9.054-7.473-11.781-3.98-2.728-8.97-3.718-13.694-2.714-3.436.731-6.697 1.374-7.633 1.559l-.199.039c-12.925 2.555-25.436 3.295-38.68 4.08-3.377.2-6.781.401-10.226.635-14.683.997-31.859 3.106-47.927 11.194-12.555 6.32-20.407 18.632-20.491 32.166-.003.549-.168 1.059-.465 1.438-7.792 9.956-12.084 22.397-12.084 35.032v4.465c-2.62 3.818-4.157 8.435-4.157 13.405.004 13.097 10.66 23.754 23.759 23.754zm117.779 123.718v8.916h-106.433v-8.916c0-22.007 13.435-40.92 32.529-49.009 3.136 8.382 11.225 14.367 20.688 14.367 9.465 0 17.555-5.987 20.69-14.371 19.092 8.089 32.526 27.006 32.526 49.013zm-60.306-56.724v-9.949c2.331.256 4.694.402 7.092.402 2.396 0 4.757-.146 7.085-.401v9.948c0 3.909-3.18 7.089-7.089 7.089-3.908 0-7.088-3.18-7.088-7.089zm56.731-74.49v.312c0 27.371-22.267 49.639-49.639 49.639-27.118 0-49.214-21.861-49.621-48.885.05-.349-.019-32.704-.019-32.704v-5.365c8.879 4.175 18.745 5.731 26.676 6.615 13.352 1.49 27.994 1.666 42.346.51 8.296-.668 14.933-1.821 20.89-3.629 3.453-1.048 6.524-2.255 9.365-3.678v37.185zm23.791-16.259c0 4.831-3.931 8.762-8.761 8.762h-.037v-17.523h.037c4.831 0 8.761 3.93 8.761 8.761zm-133.704-43.66c2.332-2.979 3.629-6.74 3.652-10.622.049-7.84 4.739-15.056 12.239-18.832 13.684-6.888 29.012-8.732 42.201-9.627 3.401-.231 6.762-.43 10.097-.627 13.769-.815 26.773-1.585 40.705-4.338l.192-.038c.962-.19 4.314-.852 7.846-1.602.989-.212 1.743.171 2.104.418.358.246.984.807 1.145 1.804.797 4.933 1.126 9.878.978 14.699-.194 6.263-.854 11.597-2.019 16.311-1.211 4.906-.278 10.008 2.559 13.998 3.99 5.611 6.491 12.003 7.378 18.731-1.323-.233-2.68-.362-4.068-.366v-2.346c-.015-4.398-2.443-8.428-6.34-10.52-3.943-2.117-8.707-1.907-12.432.546-.77.507-1.587.989-2.421 1.428-2.232 1.173-4.725 2.171-7.623 3.05-4.903 1.489-10.54 2.452-17.737 3.031-13.415 1.08-27.067.917-39.483-.466-7.736-.862-17.561-2.422-24.907-6.849-.006-.003-.091-.055-.096-.058-3.733-2.268-8.41-2.357-12.206-.23-3.763 2.108-6.108 6.102-6.123 10.423l-.007 1.991c-1.419.004-2.807.139-4.158.383.986-7.36 3.924-14.415 8.524-20.292zm-4.358 34.902v17.517c-4.801-.036-8.696-3.95-8.696-8.758s3.895-8.723 8.696-8.759z"/><path d="m265.443 153.496v-74.004c0-12.461-10.137-22.598-22.598-22.598h-43.69c-4.141 0-7.496 3.356-7.496 7.496s3.356 7.496 7.496 7.496h43.69c4.194 0 7.606 3.412 7.606 7.606v74.004c0 4.194-3.411 7.606-7.606 7.606h-9.767c-6.821 0-12.371 5.549-12.371 12.37v27.354l-40.046-34.039c-4.313-3.666-9.806-5.685-15.466-5.685h-107.269c-4.194 0-7.606-3.412-7.606-7.606v-74.004c0-4.194 3.411-7.606 7.606-7.606h106.212c4.14 0 7.496-3.356 7.496-7.496s-3.356-7.496-7.496-7.496h-106.212c-12.461 0-22.598 10.138-22.598 22.598v74.004c0 12.461 10.137 22.598 22.598 22.598h107.269c2.106 0 4.15.752 5.756 2.116l44.367 37.712c2.301 1.956 5.116 2.965 7.977 2.965 1.761 0 3.54-.383 5.227-1.163 4.427-2.047 7.178-6.349 7.178-11.227v-30.403h7.145c12.46 0 22.598-10.137 22.598-22.598z"/><path d="m197.037 323.863v-12.254c0-12.232-2.44-23.565-7.254-33.682-4.746-9.975-11.514-18.567-20.116-25.537-27.053-21.919-64.842-21.919-91.897 0-8.602 6.97-15.369 15.561-20.115 25.536-4.814 10.119-7.255 21.451-7.255 33.682v12.255c-9.677 2.85-16.763 11.808-16.763 22.395s7.086 19.546 16.763 22.396v42.492c0 15.528 8.026 29.204 20.141 37.13-2.106 2.784-4.023 5.746-5.7 8.891-1.947 3.653-.565 8.194 3.088 10.141 3.654 1.948 8.193.565 10.142-3.088 5.669-10.632 14.692-18.724 25.367-23.271 3.127 8.158 11.037 13.968 20.282 13.968 9.238 0 17.142-5.801 20.274-13.949 18.453 7.899 31.42 26.225 31.42 47.535v8.505h-103.39v-2.395c0-4.14-3.356-7.496-7.496-7.496-4.141 0-7.496 3.356-7.496 7.496v9.891c0 4.14 3.356 7.496 7.496 7.496h118.381c4.14 0 7.496-3.356 7.496-7.496v-16.001c0-15.094-5.052-29.018-13.542-40.2 12.133-7.924 20.173-21.614 20.173-37.157v-42.492c9.678-2.849 16.764-11.808 16.764-22.396.001-10.587-7.086-19.546-16.763-22.395zm-140.207 30.748c-4.537-.082-8.202-3.797-8.202-8.353 0-4.555 3.665-8.271 8.202-8.352zm45.172 70.854c-7.6 2.613-14.649 6.583-20.825 11.694-9.369-4.914-15.786-14.72-15.786-26.013v-19.355c7.986 14.192 21.002 25.187 36.611 30.562zm28.439 7.736c0 3.707-3.016 6.723-6.723 6.723s-6.723-3.016-6.723-6.723v-7.561c2.212.222 4.454.339 6.723.339s4.511-.117 6.723-.339zm-6.723-22.214c-28.614 0-51.894-23.279-51.896-51.893v-23.617c7.387-3.746 13.852-10.67 19.272-20.668.671-1.239 1.291-2.463 1.861-3.652 8.037 8.24 18.957 14.693 32.625 19.258 16.312 5.449 33.621 7.142 45.267 7.604 1.595.063 3.172.048 4.766.02v21.058c-.002 28.612-23.281 51.89-51.895 51.89zm58.326.159c0 11.312-6.431 21.142-15.825 26.046-6.111-5.066-13.131-9.073-20.785-11.717v-3.122c15.609-5.375 28.624-16.368 36.61-30.56zm0-88.265c-.865.015-1.892.043-2.994.075-2.494.072-5.599.161-7.608.082-21.604-.856-59.963-5.99-74.129-30.759-1.346-2.352-3.841-3.769-6.505-3.769-.31 0-.623.02-.936.059-3.002.376-5.487 2.526-6.294 5.442-1.76 6.35-8.198 22.51-18.188 27.908v-10.31c0-9.985 1.952-19.15 5.801-27.241 3.777-7.939 9.165-14.779 16.016-20.328 21.497-17.416 51.525-17.415 73.02 0 6.851 5.55 12.239 12.39 16.017 20.329 3.849 8.089 5.8 17.255 5.8 27.241zm8.562 31.73v-16.705c4.537.082 8.202 3.797 8.202 8.352 0 4.556-3.665 8.271-8.202 8.353z"/><path d="m455.766 293.117h-184.918c-12.461 0-22.598 10.138-22.598 22.599v74.004c0 12.461 10.137 22.598 22.598 22.598h7.144v30.402c0 4.878 2.75 9.181 7.178 11.228 1.688.78 3.466 1.163 5.228 1.163 2.861 0 5.676-1.01 7.977-2.965l44.367-37.711c1.605-1.365 3.649-2.116 5.756-2.116h107.269c12.461 0 22.598-10.138 22.598-22.598v-74.004c0-12.463-10.138-22.6-22.599-22.6zm7.606 96.603c0 4.194-3.411 7.606-7.606 7.606h-107.268c-5.66 0-11.153 2.019-15.466 5.685l-40.047 34.04v-27.355c0-6.821-5.549-12.37-12.37-12.37h-9.767c-4.194 0-7.605-3.412-7.605-7.606v-74.004c0-4.194 3.411-7.606 7.605-7.606h184.918c4.194 0 7.606 3.412 7.606 7.606z"/></g></g></svg>